<svg width="75" height="17" viewBox="0 0 75 17" fill="none" xmlns="http://www.w3.org/2000/svg">
<path d="M13.713 14.2C13.0951 13.5954 12.6078 12.8706 12.281 12.0703C11.9542 11.27 11.7949 10.4113 11.813 9.547C11.795 8.68277 11.9544 7.82402 12.2812 7.02375C12.6079 6.22348 13.0952 5.49865 13.713 4.894C14.3154 4.27861 15.0374 3.79308 15.8345 3.46734C16.6316 3.14161 17.487 2.98256 18.348 3C19.2104 2.99308 20.0655 3.15782 20.8635 3.48464C21.6616 3.81145 22.3866 4.29381 22.9964 4.9036C23.6062 5.51339 24.0886 6.23844 24.4154 7.03649C24.7422 7.83454 24.9069 8.68965 24.9 9.552C24.9084 10.4146 24.7447 11.2702 24.4183 12.0687C24.092 12.8672 23.6096 13.5926 22.9995 14.2023C22.3893 14.8121 21.6637 15.294 20.865 15.6199C20.0663 15.9457 19.2106 16.109 18.348 16.1C17.4866 16.1171 16.6308 15.9573 15.8335 15.6305C15.0363 15.3037 14.3146 14.8168 13.713 14.2ZM68.213 15.847V10.938L63.913 3.252H66.72L69.456 8.508L72.192 3.252H75L70.68 10.938V15.852L68.213 15.847ZM56.472 15.847V3.252H58.956V13.476H63.762V15.852L56.472 15.847ZM50.886 15.847L46.386 9.947V15.847H43.9V3.252H46.384V8.814L50.704 3.252H53.566L48.904 9.372L53.746 15.852L50.886 15.847ZM0 15.852V3.252H4.968C5.9715 3.22395 6.94753 3.58187 7.695 4.252C8.05436 4.57002 8.33956 4.96302 8.53049 5.40328C8.72142 5.84353 8.81342 6.32032 8.8 6.8C8.81457 7.28395 8.71455 7.76448 8.50809 8.20242C8.30164 8.64036 7.99459 9.0233 7.612 9.32C8.13212 9.5945 8.56387 10.0107 8.85729 10.5204C9.15071 11.03 9.2938 11.6124 9.27 12.2C9.28441 12.6943 9.19035 13.1857 8.99443 13.6398C8.79851 14.0938 8.5055 14.4994 8.136 14.828C7.37201 15.5152 6.37317 15.8825 5.346 15.854L0 15.852ZM29.469 11.2C28.8514 10.5952 28.3642 9.87041 28.0374 9.07016C27.7106 8.26991 27.5512 7.41121 27.569 6.547C27.5512 5.68279 27.7106 4.8241 28.0374 4.02385C28.3642 3.2236 28.8514 2.49876 29.469 1.894C30.7066 0.677017 32.3728 -0.00497437 34.1085 -0.00497437C35.8442 -0.00497437 37.5104 0.677017 38.748 1.894C39.368 2.49736 39.8573 3.22176 40.1856 4.02221C40.5138 4.82266 40.6739 5.68206 40.656 6.547C40.6734 7.41322 40.5131 8.27382 40.185 9.07567C39.8568 9.87751 39.3677 10.6036 38.748 11.209C37.5079 12.4222 35.8415 13.1008 34.1067 13.0991C32.3718 13.0974 30.7068 12.4156 29.469 11.2Z" fill="white"/>
</svg>
